<svg width="28" height="23" viewBox="0 0 28 23" fill="none" xmlns="http://www.w3.org/2000/svg">
<g id="Group 2">
<path id="Vector" d="M28 6.45097V17.8498C28.0001 19.012 27.5554 20.1301 26.7573 20.9749C25.9591 21.8197 24.8679 22.327 23.7076 22.3928L23.45 22.3998H4.55C3.38781 22.3998 2.26964 21.9552 1.42488 21.157C0.580113 20.3589 0.0727981 19.2677 0.00700016 18.1074L0 17.8498V6.45097L13.5128 13.5294C13.6631 13.6081 13.8303 13.6492 14 13.6492C14.1697 13.6492 14.3369 13.6081 14.4872 13.5294L28 6.45097Z" fill="#E3E4E6" fill-opacity="0.55"/>
<path id="Vector_2" d="M4.55006 3.30471e-08H23.4501C24.5779 -0.000135821 25.6655 0.418594 26.5021 1.17497C27.3387 1.93135 27.8645 2.97147 27.9777 4.0936L14.0001 11.4156L0.0224609 4.0936C0.130994 3.01604 0.620331 2.01252 1.40251 1.26345C2.18469 0.514372 3.20841 0.0688618 4.28966 0.00700019L4.55006 3.30471e-08H23.4501H4.55006Z" fill="#E3E4E6" fill-opacity="0.55"/>
</g>
</svg>
